<svg width="24" height="24" viewBox="0 0 24 24" fill="none" xmlns="http://www.w3.org/2000/svg">
<path fill-rule="evenodd" clip-rule="evenodd" d="M3.57269 2.3999L2.25366 3.69741L19.2273 20.3999L20.5463 19.102L3.57269 2.3999Z" fill="black" fill-opacity="0.6"/>
<path d="M5.04034 6.43954L6.28185 7.66119C4.92279 8.79986 3.84056 10.2172 3.14123 11.4573L3.1391 11.4615C5.08676 14.6659 8.17713 17.6943 12.0776 17.2349C13.1304 17.1109 14.1125 16.7567 15.0099 16.2501L16.2668 17.4864C14.5176 18.5911 12.5124 19.1762 10.3399 18.887C6.4224 18.3656 3.21917 15.204 1.19995 11.4909C2.14802 9.61374 3.4449 7.81793 5.04034 6.43954ZM7.86409 4.62906C8.95952 4.14878 10.1448 3.86631 11.4106 3.84619C11.4809 3.84578 12.3152 3.88475 12.6934 3.94594C12.9307 3.9845 13.167 4.03269 13.4 4.09262C17.116 5.04522 19.8691 8.13644 21.6 11.3211C20.8738 12.7641 19.9227 14.1722 18.7886 15.3788L17.5845 14.194C18.4223 13.3055 19.1208 12.3165 19.6587 11.3572C19.6587 11.3572 19.1178 10.5014 18.7076 9.9641C18.444 9.61877 18.1667 9.28349 17.8754 8.96037C17.6454 8.70557 16.7523 7.84014 16.5398 7.65993C15.1138 6.45337 13.4396 5.50664 11.4315 5.52256C10.6538 5.53472 9.90588 5.68559 9.19589 5.93956L7.86409 4.62906Z" fill="black" fill-opacity="0.6"/>
<path fill-rule="evenodd" clip-rule="evenodd" d="M8.41977 9.76543L9.37819 10.7081L13.0673 14.3381C12.5741 14.6106 12.005 14.7656 11.3998 14.7656C9.5152 14.7656 7.98535 13.2602 7.98535 11.4058C7.98535 10.8102 8.14336 10.2507 8.41977 9.76543ZM11.3368 8.04674C11.3577 8.04632 11.379 8.0459 11.3998 8.0459C13.2845 8.0459 14.8143 9.5517 14.8143 11.4058C14.8143 11.4267 14.8143 11.4472 14.8139 11.4678L11.3368 8.04674Z" fill="black" fill-opacity="0.6"/>
</svg>
